# xmcd CD database file
#
# Track frame offsets:
#	150
#	16576
#	50235
#	68766
#	98451
#	120270
#	147397
#	176842
#
# Disc length: 2660 seconds
#
# Revision: 0
# Processed by: cddbd v1.5.2PL0 Copyright (c) Steve Scherf et al.
# Submitted via: CDex 1.51
#
DISCID=630a6208
DTITLE=The Buddy Rich Band - Very Alive At Ronnie Scott´s Disc 1
DYEAR=1972
DGENRE=Jazz
TTITLE0=Moments Notice
TTITLE1=Watson´s Walk
TTITLE2=St Marks Square (A Special Day)
TTITLE3=Little Train
TTITLE4=Milestones
TTITLE5=The Words
TTITLE6=Dancing Men
TTITLE7=Just Buddy Rich
EXTD=YEAR: 1972
EXTT0=
EXTT1=
EXTT2=
EXTT3=
EXTT4=
EXTT5=
EXTT6=
EXTT7=
PLAYORDER=
